<svg width="20" height="20" viewBox="0 0 20 20" fill="none" xmlns="http://www.w3.org/2000/svg">
<path d="M15.3001 3.70001C14.7001 3.70001 14.1001 4.20001 14.1001 4.90001C14.1001 5.60001 14.6001 6.10001 15.3001 6.10001C16.0001 6.10001 16.5001 5.60001 16.5001 4.90001C16.4001 4.20001 15.9001 3.70001 15.3001 3.70001Z" fill="#E0E0E0"/>
<path d="M10.0001 5.20001C7.3001 5.20001 5.1001 7.40001 5.1001 10.1C5.1001 12.8 7.3001 15 10.0001 15C12.7001 15 14.9001 12.8 14.9001 10.1C15.0001 7.40001 12.8001 5.20001 10.0001 5.20001ZM10.0001 13.3C8.3001 13.3 6.8001 11.9 6.8001 10.1C6.8001 8.40001 8.2001 6.90001 10.0001 6.90001C11.7001 6.90001 13.2001 8.30001 13.2001 10.1C13.2001 11.9 11.8001 13.3 10.0001 13.3Z" fill="#E0E0E0"/>
<path d="M14 0L6 0C2.7 0 0 2.7 0 6L0 14C0 17.3 2.7 20 6 20H14C17.3 20 20 17.3 20 14V6C20 2.7 17.3 0 14 0ZM18.1 14C18.1 16.3 16.2 18.1 14 18.1H6C3.7 18.1 1.9 16.2 1.9 14V6C1.9 3.7 3.8 1.9 6 1.9H14C16.3 1.9 18.1 3.8 18.1 6V14Z" fill="#E0E0E0"/>
</svg>
